<svg xmlns="http://www.w3.org/2000/svg" xmlns:xlink="http://www.w3.org/1999/xlink" xml:space="preserve" version="1.0" style="shape-rendering:geometricPrecision;text-rendering:geometricPrecision;image-rendering:optimizeQuality;" viewBox="0 0 254 152.5" x="0px" y="0px" fill-rule="evenodd" clip-rule="evenodd"><defs><style type="text/css">
   
    .fil0 {fill:black}
   
  </style></defs><g><path class="fil0" d="M1 89c3,-35 27,-36 36,-39 2,9 12,32 25,29 6,-1 63,-3 64,5 -38,8 -86,5 -125,5z"/><path class="fil0" d="M121 10c29,61 107,36 119,15 -2,-6 -4,-10 -6,-16 -27,-1 -47,48 -88,3 -8,-8 -15,-21 -25,-2z"/><path class="fil0" d="M0 101c-3,38 191,14 238,16 5,2 21,-24 13,-25 -3,0 -98,-4 -116,0 -18,4 -37,8 -37,8 -31,0 -67,1 -98,1z"/><path class="fil0" d="M244 30c7,16 12,32 9,48 -40,1 -79,1 -119,2 0,0 0,-12 -12,-13 -13,-1 -65,-1 -65,-1 0,0 -9,-16 -7,-19 2,-2 15,-2 15,-2l4 -2 7 10c2,3 7,0 5,-4l-7 -9 3 -2 7 10c3,3 8,-1 5,-4l-7 -10 4 -2 7 10c3,4 8,0 5,-3l-7 -11 3 -2 8 11c2,3 7,0 5,-4l-8 -10 4 -2 8 11c2,3 7,0 5,-4l-8 -11 6 -4c27,70 128,40 130,17z"/></g><text x="0" y="137" fill="#000000" font-size="5px" font-weight="bold" font-family="'Helvetica Neue', Helvetica, Arial-Unicode, Arial, Sans-serif">Created by yudiyanto</text><text x="0" y="142" fill="#000000" font-size="5px" font-weight="bold" font-family="'Helvetica Neue', Helvetica, Arial-Unicode, Arial, Sans-serif">from the Noun Project</text></svg>